<?xml version="1.0" encoding="UTF-8" standalone="no"?>
<!-- Created with Inkscape (http://www.inkscape.org/) -->

<svg
   width="220mm"
   height="307mm"
   viewBox="0 0 220 307"
   version="1.1"
   id="svg1"
   inkscape:version="1.4.2 (ebf0e940d0, 2025-05-08)"
   sodipodi:docname="drawing-1.svg"
   xmlns:inkscape="http://www.inkscape.org/namespaces/inkscape"
   xmlns:sodipodi="http://sodipodi.sourceforge.net/DTD/sodipodi-0.dtd"
   xmlns="http://www.w3.org/2000/svg"
   xmlns:svg="http://www.w3.org/2000/svg">
  <sodipodi:namedview
     id="namedview1"
     pagecolor="#ffffff"
     bordercolor="#000000"
     borderopacity="0.25"
     inkscape:showpageshadow="2"
     inkscape:pageopacity="0.0"
     inkscape:pagecheckerboard="0"
     inkscape:deskcolor="#d1d1d1"
     inkscape:document-units="mm"
     inkscape:zoom="0.47118628"
     inkscape:cx="565.59372"
     inkscape:cy="623.95705"
     inkscape:window-width="1704"
     inkscape:window-height="999"
     inkscape:window-x="0"
     inkscape:window-y="0"
     inkscape:window-maximized="1"
     inkscape:current-layer="layer1" />
  <defs
     id="defs1" />
  <g
     inkscape:label="Layer 1"
     inkscape:groupmode="layer"
     id="layer1">
    <path
       style="fill:#000000;stroke:#000000;stroke-width:2;stroke-dasharray:none"
       d="M 174.02084,7.2955958 5.8424019,192.8169"
       id="path1"
       sodipodi:nodetypes="cc" />
    <path
       style="fill:#000000;stroke:#000000;stroke-width:2;stroke-dasharray:none"
       d="M 92.96089,5.4208084 8.9199547,106.80461"
       id="path1-2"
       sodipodi:nodetypes="cc" />
    <path
       style="fill:#000000;stroke:#000000;stroke-width:2;stroke-dasharray:none"
       d="M 117.88996,160.35094 72.519691,119.14925"
       id="path1-3" />
    <path
       style="fill:#000000;stroke:#000000;stroke-width:2;stroke-dasharray:none"
       d="M 84.525632,105.94947 39.155368,64.747779"
       id="path1-3-1" />
    <path
       style="fill:#000000;stroke:#000000;stroke-width:2;stroke-dasharray:none"
       d="M 128.07772,57.794564 82.707451,16.592872"
       id="path1-3-1-7"
       sodipodi:nodetypes="cc" />
    <path
       style="fill:#000000;stroke:#000000;stroke-width:2;stroke-dasharray:none"
       d="M 168.81302,12.906328 161.54277,5.5713037"
       id="path1-3-1-7-8"
       sodipodi:nodetypes="cc" />
    <path
       style="fill:#000000;stroke:#000000;stroke-width:2;stroke-dasharray:none"
       d="M 42.589355,153.17743 7.8024254,122.55905"
       id="path1-3-1-6"
       sodipodi:nodetypes="cc" />
    <path
       style="fill:#000000;stroke:#000000;stroke-width:2;stroke-dasharray:none"
       d="M 75.411274,207.5712 30.041025,166.36951"
       id="path1-3-6" />
    <path
       style="fill:#000000;stroke:#000000;stroke-width:2;stroke-dasharray:none"
       d="M 32.39645,252.96576 6.076201,228.6974"
       id="path1-3-6-6"
       sodipodi:nodetypes="cc" />
    <path
       style="fill:#000000;stroke:#000000;stroke-width:2;stroke-dasharray:none"
       d="M 215.08869,52.638213 6.3281926,283.05539"
       id="path1-1"
       sodipodi:nodetypes="cc" />
    <path
       style="fill:#000000;stroke:#000000;stroke-width:3;stroke-dasharray:none"
       d="M 217.59262,127.8368 57.515463,301.63313"
       id="path1-1-9"
       sodipodi:nodetypes="cc" />
    <path
       style="fill:#000000;stroke:#000000;stroke-width:6;stroke-linecap:butt;stroke-dasharray:none"
       d="M 215.05849,199.21777 124.39627,300.27026"
       id="path1-1-9-5"
       sodipodi:nodetypes="cc" />
    <path
       style="fill:#000000;stroke:#000000;stroke-width:3;stroke-dasharray:none"
       d="m 216.83542,264.99674 -34.57144,37.3407"
       id="path1-1-9-5-4"
       sodipodi:nodetypes="cc" />
    <path
       style="fill:#000000;stroke:#000000;stroke-width:2;stroke-dasharray:none"
       d="M 160.22332,112.72591 114.85304,71.524241"
       id="path1-3-2" />
    <path
       style="fill:#000000;stroke:#000000;stroke-width:2;stroke-dasharray:none"
       d="M 202.55668,67.746736 157.1864,26.54507"
       id="path1-3-2-0" />
    <path
       style="fill:#2d44ed;fill-opacity:1;stroke:#000000;stroke-width:3.00138;stroke-dasharray:none"
       d="m 63.029436,84.736809 -21.46631,-19.500397 4.066355,-4.450477 c 2.236493,-2.447763 11.642878,-12.793548 20.903077,-22.990632 9.2602,-10.197086 16.943287,-18.536057 17.073531,-18.531048 0.38359,0.01475 42.722101,38.58076 42.722101,38.915418 0,0.309033 -40.854172,45.452927 -41.48878,45.845137 -0.189016,0.11682 -10.003504,-8.562779 -21.809974,-19.288001 z"
       id="path2" />
    <path
       style="fill:#2d44ed;fill-opacity:1;stroke:#000000;stroke-width:3.00138;stroke-dasharray:none"
       d="M 95.928187,138.71051 74.460234,119.19528 76.21307,117.3686 c 0.964059,-1.00468 9.754782,-10.67118 19.534939,-21.481101 9.780161,-10.809927 18.273131,-20.165922 18.873261,-20.791103 l 1.09116,-1.13669 21.5063,19.545101 c 11.82846,10.749803 21.45341,19.681533 21.38876,19.848283 -0.22824,0.58872 -40.59023,44.87264 -40.89857,44.87264 -0.17203,0 -9.97336,-8.78185 -21.780733,-19.51522 z"
       id="path3" />
    <path
       style="fill:#000000;stroke:#000000;stroke-width:2.10477;stroke-dasharray:none"
       d="M 5.0267157,4.7624998 V 303.35074"
       id="path4"
       sodipodi:nodetypes="cc" />
    <path
       style="fill:#000000;stroke:#000000;stroke-width:2.10477;stroke-dasharray:none"
       d="M 216.78523,4.8088235 V 303.39706"
       id="path4-4"
       sodipodi:nodetypes="cc" />
    <path
       style="fill:#2d44ed;fill-opacity:1;stroke:#000000;stroke-width:3.00138;stroke-dasharray:none"
       d="m 6.2178922,156.20732 v -34.18017 l 0.9546687,0.72797 c 2.1842091,1.66554 33.1912031,30.11103 33.0967811,30.36264 -0.144163,0.38415 -33.6790209,37.26974 -33.8841147,37.26974 -0.092034,0 -0.1673351,-15.38108 -0.1673351,-34.18018 z"
       id="path5" />
    <path
       style="fill:#2d44ed;fill-opacity:1;stroke:#000000;stroke-width:3.00138;stroke-dasharray:none"
       d="M 19.618628,239.68821 6.2178922,227.5165 v -16.51136 -16.51137 l 11.9684808,-13.19598 11.96848,-13.19599 1.432255,1.35596 c 0.78774,0.74579 10.276741,9.35893 21.086666,19.14031 10.809927,9.7814 19.895076,18.00607 20.189226,18.27706 0.438357,0.40385 -3.063292,4.45772 -19.414992,22.47681 -10.972398,12.09125 -20.057552,22.10196 -20.189229,22.24603 -0.131678,0.14407 -6.269747,-5.21532 -13.640151,-11.90976 z"
       id="path6" />
    <path
       style="fill:#000000;stroke:#000000;stroke-width:2;stroke-dasharray:none"
       d="M 3.8355393,5.5566176 H 215.86495"
       id="path7"
       sodipodi:nodetypes="cc" />
    <path
       style="fill:#000000;stroke:#000000;stroke-width:2;stroke-dasharray:none"
       d="M 4.9997615,301.97978 H 217.02917"
       id="path7-0" />
    <path
       style="fill:#000000;stroke:#000000;stroke-width:4.2446;stroke-dasharray:none"
       d="m 166.48543,8.950915 -2.45871,-2.2230741 h 4.67839 4.67839 l -2.19327,2.2461039 c -1.20629,1.2353572 -2.20515,2.2357402 -2.21968,2.2230732 -0.0145,-0.01267 -1.13284,-1.023413 -2.48512,-2.246103 z"
       id="path8" />
    <path
       style="fill:#2d44ed;fill-opacity:1;stroke:#000000;stroke-width:4.2446;stroke-dasharray:none"
       d="m 180.73617,46.113506 c -11.73589,-10.686097 -21.33798,-19.58393 -21.33798,-19.772963 0,-0.189032 3.91664,-4.676354 8.70365,-9.971825 l 8.70365,-9.6281288 19.23227,-0.00637 19.23226,-0.00637 V 28.862428 50.997016 l -6.54218,7.205144 c -3.5982,3.962829 -7.09644,7.764791 -7.1271,7.802049 -0.0307,0.03725 -9.12867,-9.204605 -20.86457,-19.890703 z"
       id="path9"
       sodipodi:nodetypes="ssscccccsss" />
    <path
       style="fill:#fbd308;fill-opacity:1;stroke:#000000;stroke-width:4.2446;stroke-dasharray:none"
       d="M 139.74043,92.303173 C 128.31577,81.93475 118.64385,73.14004 118.24729,72.759376 c -0.58005,-0.556789 2.75215,-4.527299 17.04187,-20.30635 9.7696,-10.787824 18.72358,-20.596256 19.89774,-21.796516 l 2.13483,-2.182287 20.69164,18.79705 c 11.3804,10.338379 20.99571,19.165392 21.36737,19.615586 0.55954,0.677802 -2.51281,4.337957 -17.86946,21.28824 -10.19985,11.258338 -19.09723,21.034461 -19.77196,21.724731 l -1.22679,1.25502 z"
       id="path10"
       sodipodi:nodetypes="sssscsssscs" />
    <path
       style="fill:#d62337;fill-opacity:1;stroke:#000000;stroke-width:4.2446;stroke-dasharray:none"
       d="m 24.210809,134.67815 -17.8284497,-16.25382 0.00729,-7.13587 0.00729,-7.13587 16.0416937,-17.688062 c 8.82293,-9.728438 16.375578,-18.033399 16.78366,-18.455471 0.621766,-0.64308 4.214003,2.393498 22.173933,18.743996 l 21.431964,19.511397 -1.638422,1.75171 c -0.901136,0.96343 -9.290653,10.2167 -18.643375,20.56282 -9.352724,10.34611 -17.792943,19.60804 -18.756042,20.58205 l -1.751087,1.77094 z"
       id="path11"
       sodipodi:nodetypes="ccccssscssscc" />
    <path
       style="fill:#000000;fill-opacity:1;stroke:#000000;stroke-width:1.77479;stroke-dasharray:none"
       d="m 105.18909,166.51604 38.97899,39.84858 13.09044,-15.37086 -40.42497,-39.40178 z"
       id="path12"
       sodipodi:nodetypes="ccccc" />
    <path
       style="fill:#000000;fill-opacity:1;stroke:#000000;stroke-width:1.77479;stroke-dasharray:none"
       d="M 63.961153,212.84183 102.94013,252.6904 116.03058,237.31954 75.605603,197.91776 Z"
       id="path12-95"
       sodipodi:nodetypes="ccccc" />
    <path
       style="fill:#000000;fill-opacity:1;stroke:#000000;stroke-width:1.77479;stroke-dasharray:none"
       d="M 25.81362,254.17787 64.792606,294.02645 77.88305,278.65559 37.458071,239.25381 Z"
       id="path12-1"
       sodipodi:nodetypes="ccccc" />
    <path
       style="fill:#000000;fill-opacity:1;stroke:#000000;stroke-width:1.77479;stroke-dasharray:none"
       d="m 146.44869,121.47341 38.97898,39.84857 13.09044,-15.37086 -40.42497,-39.40178 z"
       id="path12-9"
       sodipodi:nodetypes="ccccc" />
    <path
       style="fill:#000000;fill-opacity:1;stroke:#000000;stroke-width:1.59514;stroke-dasharray:none"
       d="m 96.252839,258.9577 35.033461,35.81503 11.76541,-13.81499 -36.33309,-35.41346 z"
       id="path12-2"
       sodipodi:nodetypes="ccccc" />
    <path
       style="fill:#000000;fill-opacity:1;stroke:#000000;stroke-width:1.59514;stroke-dasharray:none"
       d="m 138.23411,212.49974 35.03345,35.81504 11.76541,-13.815 -36.33309,-35.41346 z"
       id="path12-15"
       sodipodi:nodetypes="ccccc" />
    <path
       style="fill:#000000;fill-opacity:1;stroke:#000000;stroke-width:1.59514;stroke-dasharray:none"
       d="m 176.72955,171.07411 35.03346,35.28586 4.77377,-6.12033 0.12981,-14.28286 -29.47126,-28.29609 z"
       id="path12-91"
       sodipodi:nodetypes="cccccc" />
    <path
       style="fill:#000000;fill-opacity:1;stroke:#000000;stroke-width:1.43825;stroke-dasharray:none"
       d="m 138.00938,283.53299 17.96312,18.88122 24.23282,-1.16169 -32.75953,-29.81367 z"
       id="path12-2-7"
       sodipodi:nodetypes="ccccc" />
    <path
       style="fill:#000000;fill-opacity:1;stroke:#000000;stroke-width:1.43825;stroke-dasharray:none"
       d="m 176.38202,241.12397 31.58772,32.29242 7.98805,-6.80814 0.84658,-7.37676 -30.98594,-30.20165 z"
       id="path12-15-3"
       sodipodi:nodetypes="cccccc" />
    <path
       style="fill:#000000;fill-opacity:1;stroke:#000000;stroke-width:24.0639;stroke-linecap:butt;stroke-dasharray:none"
       d="M 29.345332,203.17513 V 30.528786 H 181.7147 336.08408 l -5.43095,7.14209 C 325.79344,44.061713 306.9951,66.00362 289.60642,87.014419 258.87025,124.15303 157.4893,237.03224 151.9258,240.31027 c -1.52366,0.89775 -27.83611,29.32831 -58.472113,63.17904 -30.636002,33.85073 -58.943292,64.8735 -62.905089,68.93947 l -1.203266,7.3927 z"
       id="path13"
       sodipodi:nodetypes="ccccssssscc"
       transform="scale(0.26458333)" />
  </g>
</svg>
