<?xml version="1.0" encoding="UTF-8" standalone="no"?>
<svg
   height="24px"
   viewBox="0 -960 960 960"
   width="24px"
   fill="#000000"
   version="1.1"
   id="svg1"
   sodipodi:docname="arrow_right.svg"
   inkscape:version="1.4.2 (ebf0e940d0, 2025-05-08)"
   xmlns:inkscape="http://www.inkscape.org/namespaces/inkscape"
   xmlns:sodipodi="http://sodipodi.sourceforge.net/DTD/sodipodi-0.dtd"
   xmlns="http://www.w3.org/2000/svg"
   xmlns:svg="http://www.w3.org/2000/svg">
  <defs
     id="defs1">
    <inkscape:path-effect
       effect="powerstroke"
       message=""
       id="path-effect1"
       is_visible="true"
       lpeversion="1.3"
       scale_width="1"
       interpolator_type="CentripetalCatmullRom"
       interpolator_beta="0.2"
       start_linecap_type="zerowidth"
       end_linecap_type="zerowidth"
       offset_points="4.502667,8.2523553"
       linejoin_type="round"
       miter_limit="4"
       not_jump="false"
       sort_points="true" />
    <inkscape:path-effect
       effect="fill_between_many"
       method="bsplinespiro"
       autoreverse="false"
       close="false"
       join="false"
       linkedpaths="#path1,0,1"
       id="path-effect2" />
  </defs>
  <sodipodi:namedview
     id="namedview1"
     pagecolor="#ffffff"
     bordercolor="#000000"
     borderopacity="0.25"
     inkscape:showpageshadow="2"
     inkscape:pageopacity="0.0"
     inkscape:pagecheckerboard="0"
     inkscape:deskcolor="#d1d1d1"
     inkscape:zoom="30.958333"
     inkscape:cx="11.983849"
     inkscape:cy="12"
     inkscape:window-width="1704"
     inkscape:window-height="996"
     inkscape:window-x="0"
     inkscape:window-y="0"
     inkscape:window-maximized="1"
     inkscape:current-layer="svg1" />
  <path
     d="M 663.67503,-370.13532 550.45177,-257.17617 700.63766,-473.25707 180,-471.96501 V -510 l 520.63766,-1.29206 -49.34679,-67.44044 -71.12173,-94.37398 L 553.85,-706.15 780,-480 Z"
     id="path2"
     style="fill:#000000;fill-opacity:1"
     inkscape:original-d="M 0,0"
     inkscape:path-effect="#path-effect2" />
  <path
     d="m 657.84655,-375.97743 c -12.70678,12.67715 -29.02464,28.95694 -48.18602,48.07363 31.03667,-44.65421 63.86736,-91.88958 97.75347,-140.64343 a 8.2523792,8.2523415 17.329344 0 0 -6.79686,-12.96217 c -165.89525,0.4117 -339.08744,0.84151 -512.36478,1.27153 0,-1.75004 0,-11.77157 0,-21.53023 86.90094,-0.21566 171.74064,-0.42621 253.47549,-0.62905 82.01496,-0.20353 168.7136,-0.41869 258.93029,-0.64258 a 8.2523553,8.2523553 71.832253 0 0 6.63942,-13.12544 c -15.56609,-21.27358 -32.23717,-44.05735 -49.3468,-67.44044 a 8.2810292,8.2233164 8.6025641 0 0 -0.0695,-0.0935 c -23.41154,-31.06561 -47.39277,-62.88717 -71.12171,-94.37395 a 8.2039747,8.3020714 6.889835 0 0 -0.13544,-0.1748 c -8.97907,-11.27317 -17.86052,-22.42378 -26.31913,-33.04351 l -12.29025,10.97677 c 78.84701,78.84701 153.41812,153.41812 220.14559,220.1456 -46.3213,43.74877 -84.64505,79.94415 -110.15165,104.03421 z m 11.4948,11.84162 c 26.63122,-25.15221 67.23475,-63.50076 116.32497,-109.86468 a 8.2523553,8.2523553 45.818001 0 0 0.16898,-11.83481 C 717.58898,-554.08161 640.90577,-630.76482 559.68536,-711.98523 a 8.2523822,8.2523338 3.2315185 0 0 -12.29038,10.97664 c 8.43699,10.59258 17.29465,21.71333 26.25027,32.95705 23.65058,31.38281 47.61971,63.18831 71.02013,94.23916 13.61488,18.60697 26.98508,36.87953 39.73783,54.30823 -84.39818,0.20945 -165.62628,0.41103 -242.71632,0.60234 -84.31379,0.20924 -171.93144,0.42668 -261.70744,0.64948 a 8.2523603,8.2522865 89.928906 0 0 -8.23181,8.25234 c 0,12.30741 0,25.17007 0,38.03497 a 8.2523653,8.2523561 89.928905 0 0 8.27284,8.25234 c 170.53078,-0.4232 341.09024,-0.84648 504.80424,-1.25277 -50.37999,72.48454 -98.25292,141.36202 -141.14928,203.07943 a 8.2523553,8.2523553 84.933979 0 0 12.60481,10.55196 c 48.06769,-47.95557 87.84663,-87.64172 113.22326,-112.95915 z"
     id="path1"
     inkscape:path-effect="#path-effect1"
     inkscape:original-d="M 663.67503,-370.13532 550.45177,-257.17617 700.63766,-473.25707 180,-471.96501 V -510 l 520.63766,-1.29206 -49.34679,-67.44044 -71.12173,-94.37398 L 553.85,-706.15 780,-480 Z"
     inkscape:linked-fill="path2"
     style="fill-rule:nonzero;stroke:none;fill:#000000;fill-opacity:1"
     sodipodi:nodetypes="ccccccccccc" />
</svg>
