<?xml version="1.0" encoding="UTF-8" standalone="no"?>
<svg
   width="300"
   height="400"
   viewBox="0 0 79.375 105.833"
   xml:space="preserve"
   version="1.1"
   id="svg8"
   sodipodi:docname="drawing_f2.svg"
   inkscape:version="1.4.2 (ebf0e940d0, 2025-05-08)"
   xmlns:inkscape="http://www.inkscape.org/namespaces/inkscape"
   xmlns:sodipodi="http://sodipodi.sourceforge.net/DTD/sodipodi-0.dtd"
   xmlns="http://www.w3.org/2000/svg"
   xmlns:svg="http://www.w3.org/2000/svg"><defs
   id="defs8">
            
            
            
            
        
            
        
        
        
    </defs><sodipodi:namedview
   id="namedview8"
   pagecolor="#ffffff"
   bordercolor="#000000"
   borderopacity="0.25"
   inkscape:showpageshadow="2"
   inkscape:pageopacity="0.0"
   inkscape:pagecheckerboard="0"
   inkscape:deskcolor="#d1d1d1"
   inkscape:zoom="1.3134508"
   inkscape:cx="146.17981"
   inkscape:cy="170.92379"
   inkscape:window-width="1704"
   inkscape:window-height="996"
   inkscape:window-x="0"
   inkscape:window-y="0"
   inkscape:window-maximized="1"
   inkscape:current-layer="svg8" />
    <g
   id="g6"
   inkscape:label="outline-sketches"
   style="display:none"><g
     id="g5"><path
       style="fill:none;stroke:#ffffff;stroke-width:0.455001;stroke-linecap:round;stroke-linejoin:round"
       d="m -70.912572,59.932746 c 0.01627,-0.02789 18.166254,-6.702125 31.479364,-6.837148 6.98743,-0.07087 7.587838,-0.391781 12.053412,1.252929 3.979811,1.465798 7.41235,2.880503 7.694964,5.248442 0.879695,7.370704 -22.220245,16.469317 -43.963271,13.725187 -11.988275,-1.513008 -20.698818,-6.105981 -7.264469,-13.38941 z"
       id="path3"
       sodipodi:nodetypes="cssssc" /><path
       style="fill:none;stroke:#ffffff;stroke-width:0.311633;stroke-linecap:round;stroke-linejoin:round;stroke-dasharray:none"
       d="m -55.149221,63.895036 c 0.0051,-0.01221 5.633798,-2.935611 9.762518,-2.994753 2.166972,-0.03104 2.353173,-0.171605 3.738055,0.548798 1.234237,0.642037 2.298751,1.261695 2.386396,2.29888 0.272814,3.228456 -6.891038,7.213757 -13.63408,6.011796 -3.717856,-0.662716 -6.419206,-2.674493 -2.252889,-5.864721 z"
       id="path3-5"
       sodipodi:nodetypes="cssssc" /></g><path
     id="head3-outline"
     style="display:inline;fill:none;fill-opacity:1;stroke:#ffffff;stroke-width:0.455001;stroke-linecap:round;stroke-linejoin:round"
     d="m -50.495493,26.815254 c 0,0 -4.079187,4.079187 -5.287836,4.733872 -1.208648,0.654685 -0.352523,1.762612 -0.352523,2.417297 0,0.654682 -0.05036,1.863331 -0.151082,2.316575 -0.100719,0.453242 -0.35252,4.079187 -0.100719,4.985673 0.251801,0.906487 3.021618,6.446124 3.273422,7.20153 0.251802,0.755404 0.849083,1.409809 3.021619,1.208648 2.719458,-0.251802 7.081565,-2.850834 8.158376,-3.877748 1.922983,-1.833877 3.223062,-4.230268 3.625944,-6.496482 0.432012,-2.430068 0.385732,-6.172545 0.10072,-6.647565 -0.453243,-0.755405 -4.028826,-1.460451 -4.532428,-2.568378 -0.503605,-1.107929 -0.654685,0.453242 -3.726667,-0.654685 -3.071979,-1.107926 -4.028826,-2.618737 -4.028826,-2.618737 z m -6.093601,12.590085 c -2.115134,-1.661892 -6.899368,-6.345404 -4.431711,-9.719545 2.467656,-3.374144 1.057567,-4.43171 1.158289,-5.791441 0.100719,-1.359728 2.513817,-4.706664 6.446123,-5.791438 4.381349,-1.208648 4.280628,-3.827385 8.86342,-3.172703 4.58279,0.654685 6.642117,0.683659 10.575671,5.74108 1.057569,1.35973 1.999476,5.506115 3.071981,5.237476 1.462314,-0.366277 7.563343,6.92824 3.978466,12.791526 -3.888015,6.359087 -6.295041,4.683511 -9.417383,5.187116 -3.12234,0.503603 -4.532429,0.906486 -4.532429,0.906486 0,0 2.845039,-3.913623 2.845039,-5.338028 0,-0.627706 -0.02766,-2.07143 -0.05861,-3.49007 -0.03928,-1.800574 -0.08384,-3.560738 -0.08384,-3.560738 l -4.201996,-1.709287 -0.569762,-1.139524 -2.136609,0.21366 c 0,0 -3.774674,-0.997084 -4.629318,-2.065388 l -0.854643,-1.068304 -5.840063,5.626402 0.213661,2.065388 z"
     sodipodi:nodetypes="csssssssssssccsssssssscssccccscccc" /></g><path
   style="display:inline;fill:#ffcc00;stroke-width:0.458458"
   d="M 0.1,0.1 H 79.392 V 105.72 H 0.1 Z"
   id="path1"
   inkscape:label="bg"
   sodipodi:nodetypes="ccccc" /><g
   id="hat2"
   style="display:none"><path
     id="hat2_inner"
     style="display:inline;fill:#ff8080;stroke:#ffeeaa;stroke-width:0.231483;stroke-linecap:round;stroke-linejoin:round;stroke-dasharray:none"
     d="m 28.371438,48.556941 c -8.694403,-0.737685 -14.82101,-3.192739 -14.8244,-5.940434 -0.0027,-2.239136 3.631037,-5.261502 8.200299,-6.820495 5.096997,-1.73905 11.091293,-3.376672 15.323837,-4.186422 4.944036,-0.945869 6.45298,-1.082685 12.073105,-1.094682 l 5.32637,-0.01137 2.212212,0.785798 c 2.625153,0.932477 5.270305,2.195084 6.21163,2.96499 0.730858,0.597765 1.252397,1.53568 1.252397,2.252261 0,0.245967 -0.243792,0.951021 -0.541757,1.566789 -2.150056,4.44324 -12.376104,8.866195 -23.604453,10.209365 -2.956674,0.353687 -9.010169,0.496421 -11.62924,0.274202 z m 12.161876,-3.225432 c 3.772788,-0.859423 6.746735,-3.191204 6.746735,-5.289908 0,-1.051694 -0.442035,-1.581908 -1.982174,-2.377586 -1.140567,-0.589247 -1.402096,-0.65165 -2.731023,-0.65165 -2.424927,0 -5.186974,0.696601 -8.030057,2.025216 -2.37975,1.112093 -3.413401,2.214636 -3.413401,3.640902 0,0.6446 0.104832,0.895637 0.577024,1.381788 1.476819,1.520477 5.314259,2.072766 8.832896,1.271238 z M 28.37698,33.658341 c 0,0 -2.062673,-4.917064 -0.147332,-8.046107 1.915339,-3.129042 5.009352,-5.21507 7.661363,-5.513074 2.652009,-0.298002 6.924692,1.788023 7.661361,3.278044 0.73667,1.490021 1.137676,2.601713 1.768008,5.364073 l 0.442003,1.937025" /></g><g
   id="hat1"><path
     style="display:inline;fill:#000000;fill-opacity:1;stroke:#ffeeaa;stroke-width:0.500013;stroke-linecap:round;stroke-linejoin:round;stroke-opacity:1"
     d="m 44.084255,21.652882 c -4.346649,-0.08 -9.874088,0.201098 -10.873393,1.575277 -1.19499,1.643218 -1.217064,5.397645 -1.152035,7.191178 6.433138,-0.163011 16.74525,1.4387 18.463338,-0.309154 0.434981,-0.442543 0.574228,-2.951658 0.602089,-3.132756 0.399722,-2.598448 -0.325505,-4.54879 -1.724532,-4.948551 -0.52465,-0.149911 -2.70749,-0.327995 -5.315467,-0.375994 z m -12.025487,8.766571 c -0.550901,0.01391 -1.083247,0.03635 -1.569297,0.07942 -2.337718,0.207533 -3.602927,-0.241909 -4.453201,1.387686 -0.632516,1.212327 0.06026,3.665385 1.509099,4.452676 1.256082,0.682655 2.593898,0.860622 3.346091,1.079517 2.825677,0.822363 8.155045,0.763059 9.772129,0.752915 3.376279,-0.0211 9.332435,0.128519 12.178813,-1.370875 2.105104,-1.108966 2.130519,-3.756804 1.953627,-4.378126 -0.394412,-1.38502 0.199741,-1.149371 -1.99873,-0.949491 -2.198471,0.199881 -3.794376,0.26272 -3.794376,0.26272 L 32.112402,31.410566 c 0,0 -0.03162,-0.38492 -0.05363,-0.991113 z"
     id="hat1_inner"
     inkscape:label="hat1_inner" /></g>
    <g
   id="bust"
   style="display:inline"><path
     style="display:none;fill:#ffffff;stroke:#ffffff;stroke-width:0.33946;stroke-linecap:round;stroke-linejoin:round;stroke-dasharray:none"
     d="m 47.087341,45.010306 c 0,0 -3.073211,0.712945 -4.355175,2.991995 -1.281965,2.279049 -3.561014,2.421487 -5.41274,2.421487 -1.851729,0 -3.845896,-0.42732 -5.555181,1.851729 -1.709288,2.279049 0.676591,9.436686 0.961471,10.861092 0.284882,1.424405 0.890255,3.382963 2.172219,4.380048 1.281965,0.997083 -3.29382,4.64222 -5.982501,2.70637 -3.561014,-2.56393 -2.563931,0.14244 -5.270302,-1.851729 -2.429868,-1.79043 -4.715928,-6.054277 -3.418574,-9.828398 1.566846,-4.558097 3.009601,-4.027364 3.988337,-4.842978 2.563928,-2.136608 3.418572,-0.712202 3.418572,-3.133693 0,-2.421487 -0.569762,-6.979586 2.706372,-8.688874 3.276132,-1.709285 9.828398,-3.276131 12.962088,-2.421488 3.133694,0.854644 6.837148,-0.284882 8.261554,3.133691 1.424406,3.418575 1.513188,6.573393 0.569762,6.979589 -1.030905,0.443861 -1.769998,-0.928274 -2.946261,-2.655576 -0.743876,-1.092358 -1.545677,-1.953624 -2.099641,-1.903265 z m -0.287126,26.654062 c 1.141733,-0.0494 2.223628,-0.157495 2.672056,-0.459745 0.142392,-0.09623 0.559321,-0.718535 0.709363,-0.992353 0.107489,-0.492266 -0.07557,-0.792253 -0.167334,-2.740194 0.05186,-1.252742 0.175546,-2.713254 0.275008,-3.245145 0.181496,-0.9728 0.658402,-2.1888 0.955087,-2.437686 0.08799,-0.07348 0.48309,0.16961 1.182723,-0.06878 0.733692,-0.235754 1.09303,-0.494525 1.412954,-0.692189 0.453165,-0.279987 -0.0671,-1.131703 -0.373658,-1.879211 -0.768679,-1.380953 -1.487107,-2.016925 -1.604421,-2.793328 -0.291351,-0.314677 -0.614863,-1.86537 -0.402523,-2.793812 0.212341,-1.177275 0.409285,-1.991298 0.306851,-2.762014 -0.215925,-1.621916 -0.710781,-2.419957 -1.804626,-3.746622 -1.942054,-3.051809 -2.914328,-3.846624 -5.822084,-1.743591 -1.499377,1.084424 -3.524117,4.242343 -5.867697,3.671383 -1.885866,0.784891 -7.38231,0.263682 -7.701098,4.35609 -0.289034,3.704425 0.429301,6.801725 2.404933,10.381051 2.553275,4.624736 4.730852,6.290577 8.154204,7.338174 1.64386,0.355253 4.003784,0.654209 5.670265,0.607972 z"
     id="head3"
     sodipodi:nodetypes="cssssssssssssssscsccccccscccccsccccss" /><path
     id="torso3"
     style="display:none;fill:#ffffff;stroke:#ffffff;stroke-width:0.33946;stroke-linecap:round;stroke-linejoin:round;stroke-dasharray:none"
     d="m 49.252414,72.317284 c 0,0 -9.904538,-0.450347 -12.791526,-1.762613 L 33.691067,69.295664 M 30.88,78.247 33.873168,67.952084 c -0.798554,2.557808 -0.796039,4.815214 1.428282,6.239443 2.963319,0.929551 4.153601,-1.391466 6.105126,-2.31687 0.632032,2.553499 1.881829,3.253701 3.26607,3.550572 2.970876,-0.211065 3.449426,-1.781582 4.44356,-3.07087 L 49.267,78.847 m -32.725,35.416 c 10.132,1.303 41.98,-0.665 53.34,-0.819 5.494,-0.074 9.684,6.296 10.184,-4.127 10e-4,-0.024 -0.12,-0.887 -0.308,-1.94 -0.188,-1.05 -0.42,-2.93 -0.632,-4.158 C 77.908,96.177 74.353867,87.988559 69.916867,82.756559 51.691867,77.916559 55.004,80.163 49.455,78.424 49.21,78.347 48.710181,90.371245 39.503678,91.646651 36.689678,91.516651 26.428021,78.924203 30.613,78.331 21.413,79.98 27.077538,78.363238 16.529538,80.459238 10.613538,81.635238 6.659,80.777 4.244,90.994 3.57,93.844 0.49,114.561 0.49,114.561 l 4.243,-0.019 c 1.981,-0.009 4.703,-1.194 7.956,-0.775 z"
     sodipodi:nodetypes="csccccccccccccccccccccccc" /><path
     style="display:none;fill:#ffffff;stroke:#ffffff;stroke-width:0.814794;stroke-linecap:round;stroke-linejoin:round;stroke-dasharray:none"
     d="m 37.262,47.971 h 8.068 m 1.636,5.172 c -2.061,-0.254 -3.685,-1.712 -4.237,-3.805 -0.173,-0.655 -0.17,-1.834 0.007,-2.499 0.47,-1.773 1.78,-3.148 3.472,-3.645 0.368,-0.107 0.586,-0.13 1.271,-0.13 0.966,-0.002 1.3,0.071 2.082,0.456 1.37,0.673 2.277,1.815 2.687,3.382 0.155,0.593 0.142,1.862 -0.026,2.491 -0.484,1.815 -1.892,3.228 -3.618,3.631 -0.585,0.137 -1.158,0.179 -1.638,0.12 z M 33.298,52.854 A 4.91,4.91 0 0 1 30.48,51.403 c -1.875,-1.938 -1.918,-5.072 -0.095,-7.07 2.149,-2.356 5.84,-2.043 7.595,0.644 0.576,0.882 0.834,1.766 0.834,2.862 0,0.852 -0.148,1.49 -0.52,2.254 -0.802,1.646 -2.339,2.685 -4.115,2.782 -0.294,0.016 -0.69,0.007 -0.88,-0.02 z m 7.272,3.721 c -1.406,-1.296 -3.037,-1.906 -4.413,-0.915 -1.62,1.166 -2.274,1.812 -3.11,1.214 -0.836,-0.598 0.405,0.716 1.972,1.204 1.503,0.467 1.995,-0.957 3.494,0.094 1.605,1.125 2.162,0.995 2.162,0.995 m -0.102,-2.594 c 1.345,-1.3 2.904,-1.91 4.22,-0.917 1.55,1.169 2.175,1.817 2.975,1.217 0.8,-0.6 -0.15,0.81 -1.65,1.3 -1.437,0.468 -2.408,-0.592 -3.817,0.452 -1.136,0.842 -1.634,0.476 -1.634,0.476"
     id="head2" /><path
     style="display:none;fill:none;stroke:#ffffff;stroke-width:0.455001;stroke-linecap:round;stroke-linejoin:round"
     d="m 30.88,78.247 0.999,-11.292 7.894,4.097 8.395,-4.397 1.099,12.192 m -32.725,35.416 c 10.132,1.303 41.98,-0.665 53.34,-0.819 5.494,-0.074 9.684,6.296 10.184,-4.127 10e-4,-0.024 -0.12,-0.887 -0.308,-1.94 -0.188,-1.05 -0.42,-2.93 -0.632,-4.158 -1.218,-7.042 -1.496,-15.088 -5.933,-20.32 -18.225,-4.84 -18.189,-2.736 -23.738,-4.475 -0.245,-0.077 -6.3,20.921 -9.524,20.772 -2.814,-0.13 -8.66,-20.984 -9.318,-20.865 -9.2,1.649 -8.236,0.602 -18.784,2.698 -5.916,1.176 -5.17,-0.252 -7.585,9.965 -0.674,2.85 -3.754,23.567 -3.754,23.567 l 4.243,-0.019 c 1.981,-0.009 4.703,-1.194 7.956,-0.775 z"
     id="torso2" /><path
     style="display:inline;fill:#ffffff;fill-opacity:1;stroke:#ffffff;stroke-width:0.217622;stroke-linecap:round;stroke-linejoin:round;stroke-dasharray:none;stroke-opacity:1"
     d="m 47.255507,71.951854 c 0.999292,-0.227453 1.974357,-0.584817 2.422785,-0.887067 0.142392,-0.09623 0.38127,-0.398044 0.531312,-0.671862 0.24993,-0.456656 0.280533,-0.685422 0.366818,-2.775804 0.05186,-1.252742 0.175546,-2.713254 0.275008,-3.245145 0.181496,-0.9728 0.658402,-2.1888 0.955087,-2.437686 0.08799,-0.07348 0.732361,-0.328932 1.431994,-0.567321 1.842591,-0.627683 1.797961,-0.545887 0.896855,-1.645536 -0.839899,-1.024852 -1.593937,-2.444247 -1.711251,-3.22065 -0.04208,-0.279067 -0.223151,-1.295608 -0.402523,-2.25966 -0.179371,-0.963614 -0.409748,-2.38301 -0.512185,-3.153726 -0.215925,-1.621916 -0.4259,-2.206296 -1.270474,-3.532961 -1.942054,-3.051809 -5.074247,-4.867498 -8.659544,-5.020592 -2.909467,-0.124224 -6.344296,0.918561 -7.78139,2.362014 -1.382263,1.389215 -2.346276,4.493951 -2.665064,8.586359 -0.289034,3.704425 0.429301,6.801725 2.404933,10.381051 2.553275,4.624736 4.908903,6.860339 8.332255,7.907936 1.394589,0.426474 3.932563,0.511769 5.385384,0.18065 z"
     id="head1"
     sodipodi:nodetypes="ccccccccccccsccccc" /><path
     style="display:inline;fill:#ffffff;fill-opacity:1;stroke:#ffffff;stroke-width:0.217622;stroke-linecap:round;stroke-linejoin:round;stroke-dasharray:none;stroke-opacity:1"
     d="m 16.061937,112.80376 c 10.131492,1.30348 41.980064,-0.66486 53.339525,-0.81839 5.494621,-0.0744 9.683914,6.29564 10.184198,-4.1274 0.0013,-0.0241 -0.119864,-0.88707 -0.308161,-1.93904 -0.187872,-1.05154 -0.471806,-2.92321 -0.631625,-4.1589 C 78.033802,97.015447 77.724366,96.071954 76.268145,94.501652 75.065253,93.204731 73.652387,92.316351 71.605346,91.57013 71.04343,91.365422 69.204664,90.784542 67.518915,90.278896 60.905137,88.296553 54.252255,85.833498 51.171917,84.228203 50.036609,83.636387 49.803256,83.454862 48.605041,82.226615 47.185374,80.772227 46.748847,80.06231 46.408807,78.656912 46.190757,77.755847 46.00926,76.093689 46.00671,74.976982 46.00586,74.494956 45.97186,73.820032 45.9319,73.476665 l -0.07268,-0.623746 -0.500284,0.07698 c -3.538117,0.546325 -7.725709,-1.635914 -10.49661,-5.468937 l -0.661378,-0.9155 -0.0017,0.798711 c -0.003,1.680967 -0.231227,5.981582 -0.392746,7.407976 -0.499009,4.405156 -1.553133,6.853777 -3.615476,8.39696 -2.179231,1.630664 -8.819362,4.367101 -15.913021,6.558525 -3.678808,1.135954 -5.39431,1.741329 -6.3107178,2.226417 -2.5872794,1.369093 -4.9841363,4.534192 -6.0539872,8.151579 -0.6673285,2.25616 -0.8020693,2.46655 -1.12213195,4.76558 -0.2796829,2.00377 -0.212525,3.62263 -0.24355365,3.79934 l -0.5381133,4.45152 4.2432741,-0.0188 c 1.980733,-0.009 4.7027532,-1.1937 7.9560858,-0.77509 z"
     id="torso1"
     sodipodi:nodetypes="cccccccccccccccccccsccccccccc" /></g><g
   id="g10"
   style="display:none" />
</svg>
