<?xml version="1.0" encoding="UTF-8" standalone="no"?>
<!-- Created with Inkscape (http://www.inkscape.org/) -->

<svg
   width="200"
   height="200"
   viewBox="0 0 52.91666 52.91666"
   version="1.1"
   id="svg1"
   inkscape:version="1.4.2 (ebf0e940d0, 2025-05-08)"
   sodipodi:docname="drawing.svg"
   xmlns:inkscape="http://www.inkscape.org/namespaces/inkscape"
   xmlns:sodipodi="http://sodipodi.sourceforge.net/DTD/sodipodi-0.dtd"
   xmlns="http://www.w3.org/2000/svg"
   xmlns:svg="http://www.w3.org/2000/svg">
  <sodipodi:namedview
     id="namedview1"
     pagecolor="#ffffff"
     bordercolor="#000000"
     borderopacity="0.25"
     inkscape:showpageshadow="2"
     inkscape:pageopacity="0.0"
     inkscape:pagecheckerboard="0"
     inkscape:deskcolor="#d1d1d1"
     inkscape:document-units="mm"
     inkscape:zoom="2.647615"
     inkscape:cx="110.47679"
     inkscape:cy="6.9874208"
     inkscape:window-width="1704"
     inkscape:window-height="996"
     inkscape:window-x="0"
     inkscape:window-y="0"
     inkscape:window-maximized="1"
     inkscape:current-layer="layer1"
     showguides="true" />
  <defs
     id="defs1">
    <inkscape:path-effect
       effect="powerstroke"
       message=""
       id="path-effect3"
       is_visible="true"
       lpeversion="1.3"
       scale_width="1"
       interpolator_type="CentripetalCatmullRom"
       interpolator_beta="0.2"
       start_linecap_type="zerowidth"
       end_linecap_type="zerowidth"
       offset_points="0.20659741,-0.13020214 | 1.5501082,-0.26846387 | 2.7838755,-0.21370868"
       linejoin_type="round"
       miter_limit="4"
       not_jump="false"
       sort_points="true" />
    <inkscape:path-effect
       effect="powerstroke"
       message=""
       id="path-effect14"
       is_visible="true"
       lpeversion="1.3"
       scale_width="1"
       interpolator_type="CentripetalCatmullRom"
       interpolator_beta="0.2"
       start_linecap_type="zerowidth"
       end_linecap_type="zerowidth"
       offset_points="0.2,0.1 | 1.5,0.1 | 2.8,0.1"
       linejoin_type="round"
       miter_limit="4"
       not_jump="false"
       sort_points="true" />
    <inkscape:path-effect
       effect="powerstroke"
       message=""
       id="path-effect2"
       is_visible="true"
       lpeversion="1.3"
       scale_width="0.2"
       interpolator_type="CentripetalCatmullRom"
       interpolator_beta="0.2"
       start_linecap_type="zerowidth"
       end_linecap_type="zerowidth"
       offset_points="0.20795848,0.762782 | 0.5032544,0.54103181 | 0.80231805,0.1454117"
       linejoin_type="round"
       miter_limit="4"
       not_jump="false"
       sort_points="true" />
    <inkscape:path-effect
       effect="powerstroke"
       message=""
       id="path-effect1"
       is_visible="true"
       lpeversion="1.3"
       scale_width="1"
       interpolator_type="CentripetalCatmullRom"
       interpolator_beta="0.2"
       start_linecap_type="zerowidth"
       end_linecap_type="zerowidth"
       offset_points="0.2019802,0.9812588 | 2.4903372,0.24460602 | 4.8600883,0.42019013 | 11.005302,0.51150412 | 17.2,0.2305 | 19.500391,0.34218981 | 21.868612,0.41108199"
       linejoin_type="round"
       miter_limit="4"
       not_jump="false"
       sort_points="true" />
    <inkscape:path-effect
       effect="powerstroke"
       message=""
       id="path-effect2-2"
       is_visible="true"
       lpeversion="1.3"
       scale_width="1"
       interpolator_type="CentripetalCatmullRom"
       interpolator_beta="0.2"
       start_linecap_type="zerowidth"
       end_linecap_type="zerowidth"
       offset_points="0.2,0.3999995 | 0.5,0.3999995 | 0.80231805,0.1454117"
       linejoin_type="round"
       miter_limit="4"
       not_jump="false"
       sort_points="true" />
    <inkscape:path-effect
       effect="powerstroke"
       message=""
       id="path-effect2-9"
       is_visible="true"
       lpeversion="1.3"
       scale_width="0.2"
       interpolator_type="CentripetalCatmullRom"
       interpolator_beta="0.2"
       start_linecap_type="zerowidth"
       end_linecap_type="zerowidth"
       offset_points="0.20378057,0.7557839 | 0.51542922,0.88539158 | 0.82923953,0.44659609"
       linejoin_type="round"
       miter_limit="4"
       not_jump="false"
       sort_points="true" />
  </defs>
  <g
     inkscape:label="Layer 1"
     inkscape:groupmode="layer"
     id="layer1">
    <rect
       style="fill:#ffcc00;stroke-width:0.264583"
       id="rect1"
       width="52.864399"
       height="52.764465"
       x="0.099932708"
       y="0.099932708" />
    <ellipse
       style="fill:#ff9955;stroke:#ff9955;stroke-width:0.378778;stroke-linecap:round;stroke-linejoin:round;stroke-dasharray:none;stroke-opacity:1;paint-order:normal"
       id="path53"
       cx="12.615771"
       cy="40.685947"
       rx="17.32304"
       ry="17.230209" />
    <g
       id="SVGRepo_bgCarrier"
       stroke-width="0"
       transform="matrix(0.26458333,0,0,0.26458333,49.2125,5.55625)" />
    <g
       id="SVGRepo_tracerCarrier"
       stroke-linecap="round"
       stroke-linejoin="round"
       transform="matrix(0.26458333,0,0,0.26458333,49.2125,5.55625)" />
    <ellipse
       style="fill:#ffeeaa;stroke:#ffeeaa;stroke-width:0.263634;stroke-dasharray:none;stroke-opacity:1;paint-order:normal"
       id="path2"
       cx="10.144641"
       cy="19.157808"
       rx="3.1849015"
       ry="3.2384186" />
    <path
       style="fill:#ffccaa;stroke:#ffccaa;stroke-width:0.2;stroke-linecap:round;stroke-linejoin:round;stroke-dasharray:none"
       d="m 14.440276,40.822509 c 0.249832,1.099262 0.199865,1.249159 0.199865,1.249159 l -0.749495,1.798791 2.548284,0.499663 -0.299798,-2.498318 0.399731,-1.798788 z"
       id="path15" />
    <ellipse
       style="fill:none;stroke:#ffffff;stroke-width:0.263634;stroke-dasharray:none;stroke-opacity:1;paint-order:normal"
       id="path2-3"
       cx="18.53413"
       cy="19.329128"
       rx="3.1849015"
       ry="3.2384186" />
    <path
       id="central-figure"
       style="fill:none;fill-rule:nonzero;stroke:#ffffff;stroke-width:1.02300823;stroke-linecap:round;stroke-linejoin:round;stroke-dasharray:none;stroke-opacity:1;paint-order:normal"
       d="m 31.772794,27.239204 c 0.101739,4.05712 0.06039,8.524373 2.218455,10.172366 1.065733,0.81384 2.395721,1.429642 6.351486,2.861953 3.490606,1.263884 3.002899,0.927591 6.821014,2.198236 2.848564,0.947986 4.671524,4.271926 5.000901,6.645111 l 0.632237,4.555309 M 18.372404,24.060786 c -0.352925,0.447221 1.978567,1.006949 1.978567,1.006949 0.421652,0.462128 0.660796,1.655883 0.671299,2.066896 0.01533,0.600046 0.07066,2.349549 0.07066,2.349549 0,0 0.07067,0.618298 0.529977,1.11294 0.4433,0.477401 6.501005,2.897186 10.246148,-3.815808 0.353316,-0.706631 1.519257,-2.190555 1.837241,-5.05241 0.197127,-1.774143 -0.211524,-6.020792 -1.842005,-7.425249 -1.187721,-1.023074 -3.7104,-1.533449 -5.294968,-1.372307 -4.169122,0.423978 -5.9357,3.88647 -6.006363,4.875754 -0.07066,0.989283 -0.565305,3.321165 -0.565305,3.321165 -0.09714,1.441224 -1.138061,2.315167 -1.625247,2.932521 z m 5.611445,7.318083 c -0.09674,4.057446 -0.26913,4.553243 -2.26061,6.281557 -1.160034,1.006741 -8.070247,3.352814 -10.980474,4.161412 -2.4548006,0.682059 -4.9324346,1.285802 -6.2957597,3.497644 -0.6693589,1.08596 -0.8876363,3.799392 -1.0492934,5.146534 l -0.299798,2.498317"
       sodipodi:nodetypes="csssscscscscsssscsscssssc" />
    <path
       style="fill:none;stroke:#000000;stroke-width:0.455;stroke-linecap:round;stroke-linejoin:round;stroke-dasharray:none;stroke-opacity:1;paint-order:normal"
       d="m 3.3918284,13.355325 c 6.9956466,2.755861 18.4794456,2.76239 22.5415266,2.967849 3.610052,0.182595 12.561587,-0.214338 20.704287,-2.261219 C 54.621431,12.055021 55.046549,6.0770259 51.513395,3.745144 47.98024,1.4132619 38.864701,2.0492297 37.310112,1.7665773 35.199075,1.3827527 37.946081,-1.1306095 37.946081,-1.1306095 L 14.980576,-2.4732082 c 0,0 5.444782,6.9081019 2.261219,7.0663092 -4.567009,0.2269577 -6.653878,0.4403329 -9.8928333,1.483925 -2.8319753,0.9124631 -6.0063629,1.6959142 -6.0063629,4.169123 -1e-7,1.811237 2.0492296,3.109176 2.0492296,3.109176 z"
       id="hat-outline"
       sodipodi:nodetypes="cssssccsssc" />
    <path
       style="fill:none;stroke:none;stroke-width:0.394989;stroke-linecap:round;stroke-linejoin:round;stroke-dasharray:none;stroke-opacity:1;paint-order:normal"
       d="M 29.486506,0.51846875 V 41.642566 L 54.784619,42.307197 55.37987,41.891804 55.156651,0.0199948 Z"
       id="path6" />
    <path
       style="fill:#ff8080;stroke:#ffe680;stroke-width:0.358341;stroke-linecap:round;stroke-linejoin:round;stroke-dasharray:none;stroke-opacity:1;paint-order:normal"
       d="m 185.88288,158.50075 -11.48414,-0.32883 -7.14357,-2.16617 C 151.31453,151.17202 135.453,144.944 130.51775,141.58081 c -4.18554,-2.85228 -6.26206,-6.50713 -7.64552,-13.4568 -0.9083,-4.56278 -1.23118,-8.15691 -1.58288,-17.62021 l -0.30523,-8.21276 1.52381,-2.604984 c 4.32579,-7.395028 6.3369,-15.150257 5.99067,-23.101205 -0.18778,-4.3124 -0.74436,-8.319744 -1.65304,-11.901868 -0.35943,-1.41693 -0.65352,-2.652552 -0.65352,-2.745827 0,-0.09328 0.93142,-0.248957 2.06982,-0.345959 22.76008,-1.939365 46.59883,-6.312801 56.31172,-10.330898 6.23084,-2.577617 11.124,-6.077124 14.47926,-10.355327 l 1.11846,-1.426117 V 99.193677 158.9085 l -1.40214,-0.0395 c -0.77117,-0.0217 -6.57,-0.18744 -12.88628,-0.36829 z"
       id="path7"
       transform="scale(0.26458333)"
       sodipodi:nodetypes="ccsssscssssssscccssc" />
    <path
       style="fill:#ffe680;stroke:#ffe680;stroke-width:0.716681;stroke-linecap:round;stroke-linejoin:round;stroke-dasharray:none;stroke-opacity:1;paint-order:normal"
       d="m 124.45086,57.676243 c -1.36124,-3.018685 -4.82698,-6.009954 -8.70594,-7.514052 l -3.30714,-1.282373 V 25.775274 2.6707311 h 12.24988 12.24989 l 0.16901,1.4160767 c 0.0936,0.7843428 0.82299,1.9021894 1.63495,2.5057332 1.34919,1.0028762 2.58283,1.1233576 15.49024,1.5128239 26.52726,0.8004294 37.02044,3.1996161 43.10331,9.8552471 l 2.7027,2.957182 v 7.597499 c 0,7.428991 -0.0336,7.650554 -1.51702,9.989585 -3.58649,5.655308 -12.18211,10.951607 -21.98541,13.546593 -12.86303,3.404907 -40.21445,7.747299 -48.9268,7.767762 -2.0409,0.0048 -2.25453,-0.140192 -3.15767,-2.14299 z"
       id="path8"
       transform="scale(0.26458333)" />
    <path
       style="fill:#ffe680;stroke:#ffe680;stroke-width:0.716681;stroke-linecap:round;stroke-linejoin:round;stroke-dasharray:none;stroke-opacity:1;paint-order:normal"
       d="m 112.46064,98.282904 -0.0209,-11.484143 2.33387,-1.474404 c 5.76359,-3.641095 7.82437,-10.834667 4.827,-16.849604 -0.76096,-1.527046 -2.21525,-3.461992 -3.23175,-4.299879 l -1.84819,-1.523431 4.43358,-0.308783 c 2.43847,-0.16983 4.62562,-0.121127 4.86034,0.108229 0.23472,0.229357 0.91972,2.796883 1.52223,5.705614 1.57215,7.589926 1.21435,15.824297 -0.96093,22.114571 -1.81498,5.248396 -6.57003,13.610016 -9.71999,17.092316 l -2.17426,2.40366 z"
       id="path9"
       transform="scale(0.26458333)" />
    <path
       style="fill:#ffe680;stroke:#ffe680;stroke-width:0.716681;stroke-linecap:round;stroke-linejoin:round;stroke-dasharray:none;stroke-opacity:1;paint-order:normal"
       d="m 112.43778,56.171177 v -4.866699 l 1.31717,0.500788 c 4.51901,1.718124 8.30983,4.89783 9.00404,7.55252 0.23135,0.884672 -0.0646,1.000737 -2.55155,1.000737 -1.54728,0 -3.92844,0.152854 -5.29145,0.339676 l -2.47821,0.339677 z"
       id="path10"
       transform="scale(0.26458333)" />
    <path
       style="fill:#ffe680;stroke:#ffe680;stroke-width:0.716681;stroke-linecap:round;stroke-linejoin:round;stroke-dasharray:none;stroke-opacity:1;paint-order:normal"
       d="m 134.60485,157.00946 c -6.46317,-0.20309 -14.09479,-0.39971 -16.95915,-0.43694 l -5.20792,-0.0677 V 134.70117 112.8975 l 1.20183,-1.0502 c 0.661,-0.57761 2.08208,-2.08174 3.15794,-3.34251 l 1.95611,-2.29231 0.29304,3.37972 c 0.16117,1.85885 0.42029,5.96232 0.57582,9.11882 0.49619,10.07046 2.84136,18.19771 6.31337,21.8792 1.93497,2.0517 6.76521,5.03743 11.2079,6.92796 4.88437,2.07849 16.98986,6.58093 22.833,8.49236 l 4.54025,1.48522 -9.08049,-0.0585 c -4.99427,-0.0322 -14.36853,-0.22469 -20.8317,-0.42778 z"
       id="path11"
       transform="scale(0.26458333)" />
    <g
       id="g49">
      <path
         id="path33-0"
         style="fill:#1a1a1a;stroke:#f9f9f9;stroke-width:0.228;stroke-linecap:round;stroke-linejoin:round;stroke-dasharray:none;stroke-opacity:1;paint-order:normal"
         d="m 21.840035,7.3936367 c 5.074924,-4.387854 8.442086,0.363802 8.442086,0.363802 0,0 -3.366998,2.7351433 -8.442086,-0.363802 z"
         sodipodi:nodetypes="ccc" />
      <ellipse
         style="fill:none;stroke:#ffffff;stroke-width:0.279187;stroke-linecap:round;stroke-linejoin:round;stroke-dasharray:none;stroke-opacity:1;paint-order:normal"
         id="path33"
         cx="26.182369"
         cy="7.3450541"
         rx="1.1236668"
         ry="1.0737004" />
    </g>
    <path
       style="fill:#1a1a1a;stroke:#1a1a1a;stroke-width:0.325475;stroke-linecap:round;stroke-linejoin:round;stroke-dasharray:none;stroke-opacity:1;paint-order:normal"
       d=""
       id="path34"
       transform="scale(0.26458333)" />
    <path
       style="fill:#1a1a1a;stroke:#1a1a1a;stroke-width:0.325475;stroke-linecap:round;stroke-linejoin:round;stroke-dasharray:none;stroke-opacity:1;paint-order:normal"
       d=""
       id="path35"
       transform="scale(0.26458333)" />
    <path
       style="fill:#1a1a1a;stroke:#1a1a1a;stroke-width:0.325475;stroke-linecap:round;stroke-linejoin:round;stroke-dasharray:none;stroke-opacity:1;paint-order:normal"
       d=""
       id="path36"
       transform="scale(0.26458333)" />
    <path
       style="fill:#ff8080;stroke:#f9f9f9;stroke-width:0.230146;stroke-linecap:round;stroke-linejoin:round;stroke-dasharray:none;stroke-opacity:1;paint-order:normal"
       d="m 126.16492,59.951391 c -0.73255,-0.244535 -1.10092,-0.659526 -1.90963,-2.151279 -1.43704,-2.650781 -4.26359,-5.313147 -7.07816,-6.667026 -2.1327,-1.025879 -2.19709,-1.084296 -2.19541,-1.991634 9.5e-4,-0.514116 -0.19807,-2.86946 -0.44226,-5.234096 -0.2442,-2.364639 -0.36632,-4.608803 -0.27139,-4.987037 0.27925,-1.112638 1.4687,-2.303714 3.14621,-3.150518 0.89373,-0.451153 1.56679,-0.968182 1.56679,-1.20357 0,-0.226964 -0.82314,-1.397017 -1.82921,-2.60012 -2.72528,-3.259022 -3.08419,-4.039995 -3.74999,-8.159773 -0.3172,-1.962761 -0.69393,-3.787649 -0.83718,-4.055307 -0.15344,-0.286699 -0.26045,-3.950472 -0.26045,-8.917012 V 2.403658 h 12.39543 12.39542 l 0.18565,1.1350607 c 0.23363,1.4284323 1.26023,2.8132613 2.45587,3.312828 0.96609,0.4036583 5.97157,0.7542372 14.63165,1.024786 4.79409,0.1497722 9.15679,0.3506272 12.95304,0.5963481 1.10168,0.071309 2.5591,0.1643407 3.23872,0.2067386 0.67961,0.042398 1.58099,0.1474943 2.00304,0.2335482 0.42207,0.086054 1.60867,0.231624 2.6369,0.3234888 3.23736,0.2892346 4.1335,0.4375798 7.87866,1.3042086 1.68923,0.39089 3.19152,0.736416 3.33841,0.767836 0.14689,0.03142 0.38726,0.127268 0.53415,0.212996 0.2162,0.126181 0.98805,0.365223 2.00305,0.620344 0.60155,0.1512 4.85731,2.477366 5.72091,3.127005 0.5992,0.450742 2.08666,1.856733 3.30547,3.124426 l 2.21602,2.304894 -0.0794,7.74512 -0.0794,7.74512 -0.92982,1.735976 c -0.51141,0.954786 -1.14237,1.893019 -1.40214,2.084959 -0.25977,0.191943 -0.48011,0.4924 -0.48964,0.667683 -0.0242,0.444402 -3.64804,3.532584 -5.94787,5.068652 -2.33258,1.557945 -6.49249,3.717164 -8.92588,4.633022 -0.99054,0.37281 -1.93223,0.786725 -2.09263,0.919808 -0.16041,0.133085 -0.35101,0.182611 -0.42356,0.110058 -0.0726,-0.07255 -0.84268,0.117207 -1.7114,0.421687 -1.56425,0.548253 -2.04543,0.686193 -3.28957,0.943014 -0.35298,0.07286 -1.37454,0.311671 -2.27012,0.530682 -0.89559,0.219013 -1.97136,0.449567 -2.39061,0.512345 -0.41925,0.06278 -1.02017,0.199586 -1.33537,0.304023 -0.59526,0.197225 -0.72913,0.224333 -2.35754,0.477409 -0.54077,0.08404 -1.80269,0.334859 -2.80426,0.557365 -1.00158,0.22251 -2.18159,0.451487 -2.62226,0.508844 -1.78752,0.232653 -6.16882,1.002598 -6.5433,1.149881 -0.22033,0.08666 -0.49196,0.138074 -0.6036,0.114262 -0.11165,-0.02381 -1.25339,0.14506 -2.5372,0.375275 -1.28381,0.230214 -2.75483,0.480365 -3.26895,0.555894 -0.51412,0.07553 -1.17512,0.177173 -1.4689,0.225879 -2.298,0.380986 -11.63491,1.490359 -14.55549,1.729422 -1.98302,0.162319 -3.91815,0.327685 -4.30029,0.367479 -0.38215,0.03979 -1.10325,-0.06399 -1.60244,-0.230634 z"
       id="path37"
       transform="scale(0.26458333)" />
    <path
       style="fill:#ff8080;stroke:#f9f9f9;stroke-width:0.230146;stroke-linecap:round;stroke-linejoin:round;stroke-dasharray:none;stroke-opacity:1;paint-order:normal"
       d="m 112.31,98.381043 -0.006,-11.786615 1.70763,-1.112562 c 2.01256,-1.311239 4.41866,-3.750889 5.16625,-5.238306 1.17295,-2.333729 1.46904,-3.777702 1.36285,-6.646385 -0.0942,-2.54373 -0.17518,-2.887298 -1.14236,-4.844252 -0.77469,-1.567483 -1.56894,-2.63427 -3.10463,-4.169959 l -2.06361,-2.063617 1.11325,-0.166942 c 2.23146,-0.334628 7.68369,-0.523852 8.1275,-0.282072 0.65463,0.356629 0.77469,0.609817 1.27448,2.68775 0.24825,1.032162 0.51751,1.991757 0.59834,2.132433 0.0808,0.140677 0.17916,0.561317 0.21849,0.934756 0.0393,0.373439 0.21618,1.520261 0.39299,2.548492 0.45644,2.65435 0.4654,2.785821 0.48239,7.077438 0.0166,4.187295 -0.43559,7.922535 -1.37263,11.338792 -0.3241,1.181619 -0.56369,2.238537 -0.53242,2.348705 0.0313,0.110167 -0.0633,0.200305 -0.21023,0.200305 -0.14689,0 -0.26707,0.125892 -0.26707,0.279759 0,0.571491 -2.6981,5.973175 -4.52902,9.067247 -1.04095,1.75911 -1.88196,3.271 -1.8689,3.35977 0.0131,0.0888 -0.19459,0.32688 -0.46143,0.52917 -0.26684,0.20229 -0.41142,0.37162 -0.32129,0.37629 0.17787,0.009 -1.28946,1.73229 -3.29622,3.87072 l -1.26283,1.3457 z"
       id="path38"
       transform="scale(0.26458333)" />
    <path
       style="fill:#ff8080;stroke:#f9f9f9;stroke-width:0.230146;stroke-linecap:round;stroke-linejoin:round;stroke-dasharray:none;stroke-opacity:1;paint-order:normal"
       d="m 150.22862,157.56725 c -5.94905,-0.0966 -16.91574,-0.33762 -24.37042,-0.53556 l -13.55396,-0.35987 v -21.92675 -21.92676 l 1.35686,-1.32533 c 0.74628,-0.72893 2.14716,-2.25674 3.11308,-3.39514 0.96592,-1.1384 1.84055,-2.06982 1.94362,-2.06982 0.29054,0 0.75685,4.2671 0.93394,8.54634 0.55457,13.40086 2.53923,21.36905 6.36509,25.55515 3.90866,4.27669 12.26404,8.16008 32.07534,14.90786 3.51706,1.19792 6.44151,2.31861 6.49878,2.49043 0.0737,0.22118 -0.42878,0.2982 -1.72087,0.26377 -1.00374,-0.0268 -6.6924,-0.12769 -12.64146,-0.22432 z"
       id="path39"
       transform="scale(0.26458333)" />
    <path
       style="fill:none;stroke:#fff6d5;stroke-width:0.231905;stroke-linecap:round;stroke-linejoin:round;stroke-dasharray:none;stroke-opacity:1;paint-order:normal"
       d="m 30.179457,11.881816 c -0.02364,-0.644651 -0.219527,-1.450507 -0.07599,-1.713455 0.280604,-0.5140487 0.175132,-0.4616877 1.261876,-1.0386748 0,0 -0.285962,-0.3429222 -0.771029,-0.9153957 C 30.194259,7.7421487 30.017308,7.3016919 30.017308,7.3016919 L 29.758137,5.6323994 c 0,0 -0.388052,-1.976878 -2.861896,-2.0207212 -2.473909,-0.043844 -4.092802,0.7423258 -4.559631,1.4525614 -0.737255,1.1216647 -0.630587,3.8628147 -0.630587,3.8628147 0,0 0.09123,1.3391867 0.333766,1.8224017 0.242533,0.483216 0.225111,1.445556 2.14445,2.566395 1.334343,0.779219 3.328268,1.093228 4.648005,0.874134 2.034631,-0.337776 1.383721,-1.312409 1.347213,-2.308169 z"
       id="path4"
       sodipodi:nodetypes="sscsccsscssss" />
    <path
       style="fill:#ff8080;stroke:#f9f9f9;stroke-width:0.230146;stroke-linecap:round;stroke-linejoin:round;stroke-dasharray:none;stroke-opacity:1;paint-order:normal"
       d="m 112.30424,57.34632 c 0,-2.859856 -0.0882,-3.922787 -0.33384,-4.021894 -0.18361,-0.07409 -0.0726,-0.144196 0.24658,-0.155792 0.31924,-0.0116 0.94551,-0.32828 1.39172,-0.703741 0.66678,-0.561062 0.90829,-0.630745 1.35585,-0.391213 0.29952,0.160293 0.54457,0.222384 0.54457,0.13798 0,-0.08441 0.15023,-0.02936 0.33384,0.122324 0.18361,0.151683 1.23521,0.867959 2.33689,1.591726 2.4987,1.641565 3.43307,2.554703 4.36365,4.264471 l 0.73233,1.345535 -0.54494,0.54494 c -0.38878,0.388775 -0.90849,0.54973 -1.81354,0.561656 -2.48776,0.03278 -5.03466,0.175568 -6.81036,0.38181 l -1.80275,0.209383 z"
       id="path40"
       transform="scale(0.26458333)" />
    <path
       style="fill:#ff8080;stroke:#e9ddaf;stroke-width:0.230146;stroke-linecap:round;stroke-linejoin:round;stroke-dasharray:none;stroke-opacity:1;paint-order:normal"
       d="m 113.11821,49.422058 c -0.21332,-0.134949 -0.48373,-0.186107 -0.60091,-0.113685 -0.11718,0.07242 -0.21306,-3.949764 -0.21306,-8.938191 v -9.069867 l 0.95895,-0.565792 0.95894,-0.565792 0.53838,0.684435 c 0.29611,0.37644 1.06698,1.303707 1.71304,2.060594 l 1.17467,1.376158 -0.86924,0.522912 c -0.47809,0.287601 -1.14205,0.689049 -1.47547,0.892106 -0.33341,0.203056 -0.96437,0.863624 -1.40213,1.467928 -0.94846,1.309311 -0.99819,2.254556 -0.39785,7.561882 0.57119,5.049592 0.55221,5.280399 -0.38532,4.687312 z"
       id="path41"
       transform="scale(0.26458333)" />
    <ellipse
       style="fill:none;stroke:#ff6600;stroke-width:0.8;stroke-linecap:round;stroke-linejoin:round;stroke-dasharray:none;stroke-opacity:1;paint-order:normal"
       id="path33-7-8"
       cx="26.370375"
       cy="21.709831"
       rx="1.1236668"
       ry="1.0737004"
       transform="rotate(-4.3632355)" />
    <path
       style="fill:#ff6600;fill-rule:nonzero;stroke:none;stroke-width:0.799999;stroke-linecap:round;stroke-linejoin:round"
       d="m 23.434219,22.384926 c 0.708985,0.443961 1.715066,1.012474 2.873285,1.277051 0.176841,0.0404 0.355277,0.07334 0.534572,0.09883 1.02121,0.145163 1.928889,0.03154 2.685459,-0.164025 0.0096,-0.0025 0.01921,-0.005 0.02876,-0.0075 0.733381,-0.192466 1.293904,-0.482199 1.662068,-0.711059 0.08276,-0.05145 0.154897,-0.09922 0.216325,-0.141284 0.315398,-0.216001 0.362706,-0.287319 0.362622,-0.287419 -0.0031,-0.0037 -0.113605,0.08248 -0.393234,0.237961 -0.06432,0.03576 -0.13995,0.07574 -0.226043,0.118288 -0.38529,0.190396 -0.952975,0.41947 -1.671893,0.572992 -0.0094,0.002 -0.01875,0.004 -0.02817,0.0059 -0.747141,0.155778 -1.612521,0.189956 -2.592416,0.05994 -0.172516,-0.02289 -0.344504,-0.05024 -0.516634,-0.08154 -1.165748,-0.212018 -2.143724,-0.571378 -2.934696,-0.978182 z"
       id="path1"
       sodipodi:nodetypes="cc"
       transform="matrix(1,0,0,1.5644802,0.15899196,-15.51537)"
       inkscape:original-d="m 23.434219,22.384926 c 5.031967,2.862716 8.363087,0.0646 8.363087,0.0646"
       inkscape:path-effect="#path-effect2" />
    <path
       style="fill:#ff6600;fill-rule:nonzero;stroke:none;stroke-width:0.799999;stroke-linecap:round;stroke-linejoin:round"
       d="m 23.527822,22.424855 c 0.689034,0.431918 1.669096,0.980096 2.807243,1.246877 0.191721,0.04494 0.38608,0.08194 0.582391,0.110472 1.003294,0.145797 1.905207,0.04914 2.662661,-0.161524 0.04545,-0.01264 0.09007,-0.0256 0.13384,-0.03883 0.671379,-0.202916 1.192356,-0.495069 1.534994,-0.737437 0.125319,-0.08865 0.223232,-0.168033 0.295581,-0.231804 0.225754,-0.198992 0.230797,-0.278079 0.221588,-0.288044 -0.01614,-0.01746 -0.07424,-9.1e-5 -0.325625,0.142826 -0.07868,0.04473 -0.188264,0.10648 -0.316433,0.173806 -0.361488,0.189885 -0.864911,0.421699 -1.508833,0.600536 -0.04171,0.01158 -0.08419,0.02294 -0.12743,0.03404 -0.723882,0.185794 -1.564428,0.273613 -2.529421,0.175806 -0.188806,-0.01914 -0.37654,-0.04475 -0.563538,-0.07619 -1.138539,-0.191474 -2.109302,-0.561282 -2.867018,-0.950532 z"
       id="path1-0"
       inkscape:path-effect="#path-effect2-9"
       inkscape:original-d="m 23.527822,22.424855 c 5.031967,2.862716 8.238298,-0.100292 8.238298,-0.100292"
       sodipodi:nodetypes="cc"
       transform="matrix(1.013113,0,0,-1.4379248,-0.25109595,51.744582)" />
    <path
       style="fill:#ffeeaa;stroke:#ffeeaa;stroke-width:0.403764;stroke-linecap:round;stroke-linejoin:round"
       d="m 67.168888,84.239691 c -3.081627,-0.836391 -5.97445,-3.249194 -7.329301,-6.113115 -2.12668,-4.495432 -1.235026,-9.774753 2.237007,-13.244911 3.52424,-3.522335 8.530454,-4.372306 12.959188,-2.200251 1.498822,0.735091 1.695268,1.05026 1.214527,1.948533 -0.146376,0.273506 -0.506878,2.158486 -0.801115,4.188844 -0.982018,6.77633 -2.343094,13.400466 -2.997761,14.589611 -0.610401,1.108741 -0.633137,1.120801 -2.215187,1.175102 -0.87915,0.03018 -2.259462,-0.124541 -3.067358,-0.343813 z"
       id="path16"
       transform="scale(0.26458333)" />
    <path
       style="fill:none;stroke:none;stroke-width:0;stroke-linecap:round;stroke-linejoin:round;stroke-dasharray:none"
       d="m 53.987268,119.18065 c -0.638506,-0.0308 -1.947473,-0.16066 -2.565484,-0.25446 -3.213457,-0.48774 -5.200603,-1.8884 -7.097735,-5.0029 -2.592339,-4.25582 -4.815562,-11.95523 -6.788061,-23.508232 -0.125441,-0.734718 -0.249842,-1.322066 -0.302598,-1.428695 -0.106457,-0.21517 -0.185846,-0.181323 0.748907,-0.319293 1.480476,-0.218519 3.366915,-0.42197 5.051717,-0.544823 1.393179,-0.101589 7.892503,-0.101275 9.31354,4.5e-4 4.959117,0.354998 9.967467,1.274928 14.533605,2.669519 l 0.45345,0.138493 0.02612,0.460413 c 0.101493,1.788807 1.6161,2.930071 5.653095,4.259636 0.610219,0.200973 1.327256,0.425226 1.593415,0.49834 l 0.483926,0.132935 v 5.507937 5.50794 l -0.762424,1.01109 c -2.445727,3.24339 -4.081657,4.87634 -6.508271,6.4964 -3.594521,2.39979 -7.809248,3.97553 -11.519801,4.30685 -0.645605,0.0576 -1.818161,0.0923 -2.313403,0.0684 z"
       id="path17"
       transform="scale(0.26458333)" />
  </g>
</svg>
