<?xml version="1.0" encoding="UTF-8" standalone="no"?>
<svg
   width="300"
   height="400"
   viewBox="0 0 79.375 105.833"
   xml:space="preserve"
   version="1.1"
   id="svg8"
   sodipodi:docname="fig1.svg"
   inkscape:version="1.4.2 (ebf0e940d0, 2025-05-08)"
   xmlns:inkscape="http://www.inkscape.org/namespaces/inkscape"
   xmlns:sodipodi="http://sodipodi.sourceforge.net/DTD/sodipodi-0.dtd"
   xmlns="http://www.w3.org/2000/svg"
   xmlns:svg="http://www.w3.org/2000/svg"><defs
   id="defs8">
            
            
            
            
        
            
        
        
        
    </defs><sodipodi:namedview
   id="namedview8"
   pagecolor="#ffffff"
   bordercolor="#000000"
   borderopacity="0.25"
   inkscape:showpageshadow="2"
   inkscape:pageopacity="0.0"
   inkscape:pagecheckerboard="0"
   inkscape:deskcolor="#d1d1d1"
   inkscape:zoom="1.3134508"
   inkscape:cx="146.17982"
   inkscape:cy="232.21273"
   inkscape:window-width="1704"
   inkscape:window-height="999"
   inkscape:window-x="0"
   inkscape:window-y="0"
   inkscape:window-maximized="1"
   inkscape:current-layer="bust" />
    <g
   id="hat1"
   style="stroke:#000000;fill:#000000"><path
     style="display:inline;fill:#000000;fill-opacity:1;stroke:#000000;stroke-width:0.500013;stroke-linecap:round;stroke-linejoin:round;stroke-opacity:1"
     d="m 44.084255,21.652882 c -4.346649,-0.08 -9.874088,0.201098 -10.873393,1.575277 -1.19499,1.643218 -1.217064,5.397645 -1.152035,7.191178 6.433138,-0.163011 16.74525,1.4387 18.463338,-0.309154 0.434981,-0.442543 0.574228,-2.951658 0.602089,-3.132756 0.399722,-2.598448 -0.325505,-4.54879 -1.724532,-4.948551 -0.52465,-0.149911 -2.70749,-0.327995 -5.315467,-0.375994 z m -12.025487,8.766571 c -0.550901,0.01391 -1.083247,0.03635 -1.569297,0.07942 -2.337718,0.207533 -3.602927,-0.241909 -4.453201,1.387686 -0.632516,1.212327 0.06026,3.665385 1.509099,4.452676 1.256082,0.682655 2.593898,0.860622 3.346091,1.079517 2.825677,0.822363 8.155045,0.763059 9.772129,0.752915 3.376279,-0.0211 9.332435,0.128519 12.178813,-1.370875 2.105104,-1.108966 2.130519,-3.756804 1.953627,-4.378126 -0.394412,-1.38502 0.199741,-1.149371 -1.99873,-0.949491 -2.198471,0.199881 -3.794376,0.26272 -3.794376,0.26272 L 32.112402,31.410566 c 0,0 -0.03162,-0.38492 -0.05363,-0.991113 z"
     id="hat1_inner"
     inkscape:label="hat1_inner" /></g>
    <g
   id="bust"
   style="display:inline;fill:#000000;stroke:none"><path
     style="display:inline;fill:#ffcc00;fill-opacity:1;stroke:none;stroke-width:0.217622;stroke-linecap:round;stroke-linejoin:round;stroke-dasharray:none;stroke-opacity:1"
     d="m 47.255507,71.951854 c 0.999292,-0.227453 1.974357,-0.584817 2.422785,-0.887067 0.142392,-0.09623 0.38127,-0.398044 0.531312,-0.671862 0.24993,-0.456656 0.280533,-0.685422 0.366818,-2.775804 0.05186,-1.252742 0.175546,-2.713254 0.275008,-3.245145 0.181496,-0.9728 0.658402,-2.1888 0.955087,-2.437686 0.08799,-0.07348 0.732361,-0.328932 1.431994,-0.567321 1.842591,-0.627683 1.797961,-0.545887 0.896855,-1.645536 -0.839899,-1.024852 -1.593937,-2.444247 -1.711251,-3.22065 -0.04208,-0.279067 -0.223151,-1.295608 -0.402523,-2.25966 -0.179371,-0.963614 -0.409748,-2.38301 -0.512185,-3.153726 -0.215925,-1.621916 -0.4259,-2.206296 -1.270474,-3.532961 -1.942054,-3.051809 -5.074247,-4.867498 -8.659544,-5.020592 -2.909467,-0.124224 -6.344296,0.918561 -7.78139,2.362014 -1.382263,1.389215 -2.346276,4.493951 -2.665064,8.586359 -0.289034,3.704425 0.429301,6.801725 2.404933,10.381051 2.553275,4.624736 4.908903,6.860339 8.332255,7.907936 1.394589,0.426474 3.932563,0.511769 5.385384,0.18065 z"
     id="head1"
     sodipodi:nodetypes="ccccccccccccsccccc" /><path
     style="display:inline;fill:#ffcc00;fill-opacity:1;stroke:none;stroke-width:0.217622;stroke-linecap:round;stroke-linejoin:round;stroke-dasharray:none;stroke-opacity:1"
     d="m 16.061937,112.80376 c 10.131492,1.30348 41.980064,-0.66486 53.339525,-0.81839 5.494621,-0.0744 9.683914,6.29564 10.184198,-4.1274 0.0013,-0.0241 -0.119864,-0.88707 -0.308161,-1.93904 -0.187872,-1.05154 -0.471806,-2.92321 -0.631625,-4.1589 C 78.033802,97.015447 77.724366,96.071954 76.268145,94.501652 75.065253,93.204731 73.652387,92.316351 71.605346,91.57013 71.04343,91.365422 69.204664,90.784542 67.518915,90.278896 60.905137,88.296553 54.252255,85.833498 51.171917,84.228203 50.036609,83.636387 49.803256,83.454862 48.605041,82.226615 47.185374,80.772227 46.748847,80.06231 46.408807,78.656912 46.190757,77.755847 46.00926,76.093689 46.00671,74.976982 46.00586,74.494956 45.97186,73.820032 45.9319,73.476665 l -0.07268,-0.623746 -0.500284,0.07698 c -3.538117,0.546325 -7.725709,-1.635914 -10.49661,-5.468937 l -0.661378,-0.9155 -0.0017,0.798711 c -0.003,1.680967 -0.231227,5.981582 -0.392746,7.407976 -0.499009,4.405156 -1.553133,6.853777 -3.615476,8.39696 -2.179231,1.630664 -8.819362,4.367101 -15.913021,6.558525 -3.678808,1.135954 -5.39431,1.741329 -6.3107178,2.226417 -2.5872794,1.369093 -4.9841363,4.534192 -6.0539872,8.151579 -0.6673285,2.25616 -0.8020693,2.46655 -1.12213195,4.76558 -0.2796829,2.00377 -0.212525,3.62263 -0.24355365,3.79934 l -0.5381133,4.45152 4.2432741,-0.0188 c 1.980733,-0.009 4.7027532,-1.1937 7.9560858,-0.77509 z"
     id="torso1"
     sodipodi:nodetypes="cccccccccccccccccccsccccccccc" /></g>
</svg>
