<?xml version="1.0" encoding="UTF-8" standalone="no"?>
<svg
   width="300"
   height="400"
   viewBox="0 0 79.375 105.833"
   xml:space="preserve"
   version="1.1"
   id="svg8"
   sodipodi:docname="fig2.svg"
   inkscape:version="1.4.2 (ebf0e940d0, 2025-05-08)"
   xmlns:inkscape="http://www.inkscape.org/namespaces/inkscape"
   xmlns:sodipodi="http://sodipodi.sourceforge.net/DTD/sodipodi-0.dtd"
   xmlns="http://www.w3.org/2000/svg"
   xmlns:svg="http://www.w3.org/2000/svg"><defs
   id="defs8">
            
            
            
            
        
            
        
        
        
    </defs><sodipodi:namedview
   id="namedview8"
   pagecolor="#ffffff"
   bordercolor="#000000"
   borderopacity="0.25"
   inkscape:showpageshadow="2"
   inkscape:pageopacity="0.0"
   inkscape:pagecheckerboard="0"
   inkscape:deskcolor="#d1d1d1"
   inkscape:zoom="1.3134508"
   inkscape:cx="146.17982"
   inkscape:cy="255.81468"
   inkscape:window-width="1704"
   inkscape:window-height="999"
   inkscape:window-x="0"
   inkscape:window-y="0"
   inkscape:window-maximized="1"
   inkscape:current-layer="svg8" />
    <g
   id="hat1"
   style="stroke:#000000;fill:#ff9955;fill-opacity:1;stroke-opacity:1"><path
     style="display:inline;fill:#ff9955;fill-opacity:1;stroke:#000000;stroke-width:0.500013;stroke-linecap:round;stroke-linejoin:round;stroke-opacity:1"
     d="m 44.084255,21.652882 c -4.346649,-0.08 -9.874088,0.201098 -10.873393,1.575277 -1.19499,1.643218 -1.217064,5.397645 -1.152035,7.191178 6.433138,-0.163011 16.74525,1.4387 18.463338,-0.309154 0.434981,-0.442543 0.574228,-2.951658 0.602089,-3.132756 0.399722,-2.598448 -0.325505,-4.54879 -1.724532,-4.948551 -0.52465,-0.149911 -2.70749,-0.327995 -5.315467,-0.375994 z m -12.025487,8.766571 c -0.550901,0.01391 -1.083247,0.03635 -1.569297,0.07942 -2.337718,0.207533 -3.602927,-0.241909 -4.453201,1.387686 -0.632516,1.212327 0.06026,3.665385 1.509099,4.452676 1.256082,0.682655 2.593898,0.860622 3.346091,1.079517 2.825677,0.822363 8.155045,0.763059 9.772129,0.752915 3.376279,-0.0211 9.332435,0.128519 12.178813,-1.370875 2.105104,-1.108966 2.130519,-3.756804 1.953627,-4.378126 -0.394412,-1.38502 0.199741,-1.149371 -1.99873,-0.949491 -2.198471,0.199881 -3.794376,0.26272 -3.794376,0.26272 L 32.112402,31.410566 c 0,0 -0.03162,-0.38492 -0.05363,-0.991113 z"
     id="hat1_inner"
     inkscape:label="hat1_inner" /></g>
    <g
   id="bust"
   style="display:inline;fill:#ff9955;stroke:#000000;fill-opacity:1;stroke-opacity:1"><path
     style="display:inline;fill:#ff9955;stroke:#000000;stroke-width:0.814794;stroke-linecap:round;stroke-linejoin:round;stroke-dasharray:none;fill-opacity:1;stroke-opacity:1"
     d="m 37.262,47.971 h 8.068 m 1.636,5.172 c -2.061,-0.254 -3.685,-1.712 -4.237,-3.805 -0.173,-0.655 -0.17,-1.834 0.007,-2.499 0.47,-1.773 1.78,-3.148 3.472,-3.645 0.368,-0.107 0.586,-0.13 1.271,-0.13 0.966,-0.002 1.3,0.071 2.082,0.456 1.37,0.673 2.277,1.815 2.687,3.382 0.155,0.593 0.142,1.862 -0.026,2.491 -0.484,1.815 -1.892,3.228 -3.618,3.631 -0.585,0.137 -1.158,0.179 -1.638,0.12 z M 33.298,52.854 A 4.91,4.91 0 0 1 30.48,51.403 c -1.875,-1.938 -1.918,-5.072 -0.095,-7.07 2.149,-2.356 5.84,-2.043 7.595,0.644 0.576,0.882 0.834,1.766 0.834,2.862 0,0.852 -0.148,1.49 -0.52,2.254 -0.802,1.646 -2.339,2.685 -4.115,2.782 -0.294,0.016 -0.69,0.007 -0.88,-0.02 z m 7.272,3.721 c -1.406,-1.296 -3.037,-1.906 -4.413,-0.915 -1.62,1.166 -2.274,1.812 -3.11,1.214 -0.836,-0.598 0.405,0.716 1.972,1.204 1.503,0.467 1.995,-0.957 3.494,0.094 1.605,1.125 2.162,0.995 2.162,0.995 m -0.102,-2.594 c 1.345,-1.3 2.904,-1.91 4.22,-0.917 1.55,1.169 2.175,1.817 2.975,1.217 0.8,-0.6 -0.15,0.81 -1.65,1.3 -1.437,0.468 -2.408,-0.592 -3.817,0.452 -1.136,0.842 -1.634,0.476 -1.634,0.476"
     id="head2" /><path
     style="display:inline;fill:#ff9955;stroke:#000000;stroke-width:0.455001;stroke-linecap:round;stroke-linejoin:round;fill-opacity:1;stroke-opacity:1"
     d="m 30.88,78.247 0.999,-11.292 7.894,4.097 8.395,-4.397 1.099,12.192 m -32.725,35.416 c 10.132,1.303 41.98,-0.665 53.34,-0.819 5.494,-0.074 9.684,6.296 10.184,-4.127 10e-4,-0.024 -0.12,-0.887 -0.308,-1.94 -0.188,-1.05 -0.42,-2.93 -0.632,-4.158 -1.218,-7.042 -1.496,-15.088 -5.933,-20.32 -18.225,-4.84 -18.189,-2.736 -23.738,-4.475 -0.245,-0.077 -6.3,20.921 -9.524,20.772 -2.814,-0.13 -8.66,-20.984 -9.318,-20.865 -9.2,1.649 -8.236,0.602 -18.784,2.698 -5.916,1.176 -5.17,-0.252 -7.585,9.965 -0.674,2.85 -3.754,23.567 -3.754,23.567 l 4.243,-0.019 c 1.981,-0.009 4.703,-1.194 7.956,-0.775 z"
     id="torso2" /></g>
</svg>
