<?xml version="1.0" encoding="UTF-8" standalone="no"?>
<svg
   width="300"
   height="400"
   viewBox="0 0 79.375 105.833"
   xml:space="preserve"
   version="1.1"
   id="svg8"
   sodipodi:docname="fig3.svg"
   inkscape:version="1.4.2 (ebf0e940d0, 2025-05-08)"
   xmlns:inkscape="http://www.inkscape.org/namespaces/inkscape"
   xmlns:sodipodi="http://sodipodi.sourceforge.net/DTD/sodipodi-0.dtd"
   xmlns="http://www.w3.org/2000/svg"
   xmlns:svg="http://www.w3.org/2000/svg"><defs
   id="defs8">
            
            
            
            
        
            
        
        
        
    </defs><sodipodi:namedview
   id="namedview8"
   pagecolor="#ffffff"
   bordercolor="#000000"
   borderopacity="0.25"
   inkscape:showpageshadow="2"
   inkscape:pageopacity="0.0"
   inkscape:pagecheckerboard="0"
   inkscape:deskcolor="#d1d1d1"
   inkscape:zoom="0.6567254"
   inkscape:cx="-161.40688"
   inkscape:cy="184.24748"
   inkscape:window-width="1704"
   inkscape:window-height="999"
   inkscape:window-x="0"
   inkscape:window-y="0"
   inkscape:window-maximized="1"
   inkscape:current-layer="hat2" />
    <g
   id="hat2"
   style="display:inline;stroke:none;fill:#ff8080;stroke-width:1.02658333;stroke-dasharray:none;stroke-opacity:1;fill-opacity:1"><path
     id="hat2_inner"
     style="display:inline;fill:#ff6600;stroke:none;stroke-width:1.02658;stroke-linecap:round;stroke-linejoin:round;stroke-dasharray:none;stroke-opacity:1;fill-opacity:1"
     d="m 28.371438,48.556941 c -8.694403,-0.737685 -14.82101,-3.192739 -14.8244,-5.940434 -0.0027,-2.239136 3.527613,-5.606157 8.200299,-6.820495 5.595539,-1.454169 11.661055,-2.806909 15.893599,-3.616659 4.944036,-0.945869 7.089396,-1.655023 11.503343,-1.664445 l 5.32637,-0.01137 2.212212,0.785798 c 2.625153,0.932477 5.270305,2.195084 6.21163,2.96499 0.730858,0.597765 1.252397,1.53568 1.252397,2.252261 0,0.245967 -0.243792,0.951021 -0.541757,1.566789 -2.150056,4.44324 -12.376104,8.866195 -23.604453,10.209365 -2.956674,0.353687 -9.010169,0.496421 -11.62924,0.274202 z m 12.161876,-3.225432 c 3.772788,-0.859423 6.746735,-3.191204 6.746735,-5.289908 0,-1.051694 -0.442035,-1.581908 -1.982174,-2.377586 -1.140567,-0.589247 -1.402096,-0.65165 -2.731023,-0.65165 -2.424927,0 -5.186974,0.696601 -8.030057,2.025216 -2.37975,1.112093 -3.413401,2.214636 -3.413401,3.640902 0,0.6446 0.104832,0.895637 0.577024,1.381788 1.476819,1.520477 5.314259,2.072766 8.832896,1.271238 z M 28.661861,33.30224 c 0,0 -2.347554,-4.560963 -0.432213,-7.690006 1.915339,-3.129042 5.009352,-5.21507 7.661363,-5.513074 2.652009,-0.298002 6.924692,1.788023 7.661361,3.278044 0.73667,1.490021 1.731952,2.530938 1.768008,5.364073 l 0.01468,1.153602"
     sodipodi:nodetypes="scssscssssssssssssssscssssc" /></g><rect
   style="fill:#ffffff;stroke:none;stroke-width:4"
   id="rect1"
   width="11.88504"
   height="6.7482858"
   x="38.576023"
   y="42.906841" />
    <g
   id="bust"
   style="display:inline;fill:#ff8080;stroke:none;fill-opacity:1"><path
     style="display:inline;fill:#ff8080;stroke:#ffffff;stroke-width:0.33946;stroke-linecap:round;stroke-linejoin:round;stroke-dasharray:none;fill-opacity:1"
     d="m 47.087341,45.010306 c 0,0 -3.073211,0.712945 -4.355175,2.991995 -1.281965,2.279049 -3.561014,2.421487 -5.41274,2.421487 -1.851729,0 -3.845896,-0.42732 -5.555181,1.851729 -1.709288,2.279049 0.676591,9.436686 0.961471,10.861092 0.284882,1.424405 0.890255,3.382963 2.172219,4.380048 1.281965,0.997083 -3.29382,4.64222 -5.982501,2.70637 -3.561014,-2.56393 -2.563931,0.14244 -5.270302,-1.851729 -2.429868,-1.79043 -4.715928,-6.054277 -3.418574,-9.828398 1.566846,-4.558097 3.009601,-4.027364 3.988337,-4.842978 2.563928,-2.136608 3.418572,-0.712202 3.418572,-3.133693 0,-2.421487 -0.569762,-6.979586 2.706372,-8.688874 3.276132,-1.709285 9.828398,-3.276131 12.962088,-2.421488 3.133694,0.854644 6.837148,-0.284882 8.261554,3.133691 1.424406,3.418575 1.513188,6.573393 0.569762,6.979589 -1.030905,0.443861 -1.769998,-0.928274 -2.946261,-2.655576 -0.743876,-1.092358 -1.545677,-1.953624 -2.099641,-1.903265 z m -0.287126,26.654062 c 1.141733,-0.0494 2.223628,-0.157495 2.672056,-0.459745 0.142392,-0.09623 0.559321,-0.718535 0.709363,-0.992353 0.107489,-0.492266 -0.07557,-0.792253 -0.167334,-2.740194 0.05186,-1.252742 0.175546,-2.713254 0.275008,-3.245145 0.181496,-0.9728 0.658402,-2.1888 0.955087,-2.437686 0.08799,-0.07348 0.48309,0.16961 1.182723,-0.06878 0.733692,-0.235754 1.09303,-0.494525 1.412954,-0.692189 0.453165,-0.279987 -0.0671,-1.131703 -0.373658,-1.879211 -0.768679,-1.380953 -1.487107,-2.016925 -1.604421,-2.793328 -0.291351,-0.314677 -0.614863,-1.86537 -0.402523,-2.793812 0.212341,-1.177275 0.409285,-1.991298 0.306851,-2.762014 -0.215925,-1.621916 -0.710781,-2.419957 -1.804626,-3.746622 -1.942054,-3.051809 -2.914328,-3.846624 -5.822084,-1.743591 -1.499377,1.084424 -3.524117,4.242343 -5.867697,3.671383 -1.885866,0.784891 -7.38231,0.263682 -7.701098,4.35609 -0.289034,3.704425 0.429301,6.801725 2.404933,10.381051 2.553275,4.624736 4.730852,6.290577 8.154204,7.338174 1.64386,0.355253 4.003784,0.654209 5.670265,0.607972 z"
     id="head3"
     sodipodi:nodetypes="cssssssssssssssscsccccccscccccsccccss" /><path
     id="torso3"
     style="display:inline;fill:#ff8080;stroke:none;stroke-width:0.33946;stroke-linecap:round;stroke-linejoin:round;stroke-dasharray:none;fill-opacity:1"
     d="M 49.252414,72.317284 C 46.668357,72.11346 44.110264,71.797473 41.58459,71.330289 38.914643,70.836417 36.280926,70.17358 33.691067,69.295664 M 30.88,78.247 33.873168,67.952084 c -0.798554,2.557808 -0.99748,3.102962 1.226841,4.527191 2.308634,-0.07766 2.290268,-0.53534 3.284946,-1.460744 -0.02265,1.697373 1.176785,2.498296 2.561026,2.795167 1.153281,-0.08194 2.620186,-0.97512 2.966807,-1.602606 0.333463,-0.603666 0.635425,1.755569 2.640394,1.855874 1.274722,0.06377 2.19965,-1.241349 2.563024,-1.712607 L 49.267,78.847 m -32.725,35.416 c 10.132,1.303 41.98,-0.665 53.34,-0.819 5.494,-0.074 9.684,6.296 10.184,-4.127 10e-4,-0.024 -0.12,-0.887 -0.308,-1.94 -0.188,-1.05 -0.42,-2.93 -0.632,-4.158 C 77.908,96.177 74.353867,87.988559 69.916867,82.756559 51.691867,77.916559 55.004,80.163 49.455,78.424 49.21,78.347 48.710181,90.371245 39.503678,91.646651 36.689678,91.516651 26.428021,78.924203 30.613,78.331 21.413,79.98 27.077538,78.363238 16.529538,80.459238 10.613538,81.635238 6.659,80.777 4.244,90.994 3.57,93.844 0.49,114.561 0.49,114.561 l 4.243,-0.019 c 1.981,-0.009 4.703,-1.194 7.956,-0.775 z"
     sodipodi:nodetypes="csccccccssccccccccccccccccc" /></g>
</svg>
